<svg width="164" height="48" viewBox="0 0 164 48" fill="none" xmlns="http://www.w3.org/2000/svg">
<g clip-path="url(#clip0_0_2995)">
<rect width="164" height="48" rx="24" fill="#635FC7"/>
<path d="M28.11 31V28.09H25.2V26.395H28.11V23.5H29.805V26.395H32.7V28.09H29.805V31H28.11ZM36.7334 31L40.5884 19.825H43.2284L47.0834 31H44.8634L44.0684 28.6H39.7484L38.9384 31H36.7334ZM40.3334 26.8H43.4834L41.6234 21.235H42.1934L40.3334 26.8ZM51.6641 31.18C50.8741 31.18 50.1691 30.995 49.5491 30.625C48.9291 30.245 48.4391 29.73 48.0791 29.08C47.7191 28.43 47.5391 27.71 47.5391 26.92C47.5391 26.12 47.7191 25.4 48.0791 24.76C48.4391 24.12 48.9291 23.61 49.5491 23.23C50.1791 22.85 50.8791 22.66 51.6491 22.66C52.2691 22.66 52.8191 22.785 53.2991 23.035C53.7891 23.275 54.1741 23.615 54.4541 24.055L54.1541 24.46V19.645H56.1191V31H54.2591V29.425L54.4691 29.815C54.1891 30.255 53.7991 30.595 53.2991 30.835C52.7991 31.065 52.2541 31.18 51.6641 31.18ZM51.8741 29.38C52.3241 29.38 52.7191 29.275 53.0591 29.065C53.3991 28.855 53.6641 28.565 53.8541 28.195C54.0541 27.825 54.1541 27.4 54.1541 26.92C54.1541 26.45 54.0541 26.03 53.8541 25.66C53.6641 25.28 53.3991 24.985 53.0591 24.775C52.7191 24.565 52.3241 24.46 51.8741 24.46C51.4341 24.46 51.0391 24.57 50.6891 24.79C50.3391 25 50.0641 25.29 49.8641 25.66C49.6741 26.02 49.5791 26.44 49.5791 26.92C49.5791 27.4 49.6741 27.825 49.8641 28.195C50.0641 28.565 50.3391 28.855 50.6891 29.065C51.0391 29.275 51.4341 29.38 51.8741 29.38ZM61.7422 31.18C60.9522 31.18 60.2472 30.995 59.6272 30.625C59.0072 30.245 58.5172 29.73 58.1572 29.08C57.7972 28.43 57.6172 27.71 57.6172 26.92C57.6172 26.12 57.7972 25.4 58.1572 24.76C58.5172 24.12 59.0072 23.61 59.6272 23.23C60.2572 22.85 60.9572 22.66 61.7272 22.66C62.3472 22.66 62.8972 22.785 63.3772 23.035C63.8672 23.275 64.2522 23.615 64.5322 24.055L64.2322 24.46V19.645H66.1972V31H64.3372V29.425L64.5472 29.815C64.2672 30.255 63.8772 30.595 63.3772 30.835C62.8772 31.065 62.3322 31.18 61.7422 31.18ZM61.9522 29.38C62.4022 29.38 62.7972 29.275 63.1372 29.065C63.4772 28.855 63.7422 28.565 63.9322 28.195C64.1322 27.825 64.2322 27.4 64.2322 26.92C64.2322 26.45 64.1322 26.03 63.9322 25.66C63.7422 25.28 63.4772 24.985 63.1372 24.775C62.7972 24.565 62.4022 24.46 61.9522 24.46C61.5122 24.46 61.1172 24.57 60.7672 24.79C60.4172 25 60.1422 25.29 59.9422 25.66C59.7522 26.02 59.6572 26.44 59.6572 26.92C59.6572 27.4 59.7522 27.825 59.9422 28.195C60.1422 28.565 60.4172 28.855 60.7672 29.065C61.1172 29.275 61.5122 29.38 61.9522 29.38ZM70.8564 31V19.825H72.4464L78.5964 28.105L77.7714 28.27V19.825H79.8114V31H78.2064L72.1464 22.66L72.8964 22.495V31H70.8564ZM85.6795 31.18C84.8395 31.18 84.1045 30.99 83.4745 30.61C82.8445 30.23 82.3545 29.715 82.0045 29.065C81.6545 28.415 81.4795 27.695 81.4795 26.905C81.4795 26.085 81.6545 25.36 82.0045 24.73C82.3645 24.09 82.8495 23.585 83.4595 23.215C84.0795 22.845 84.7695 22.66 85.5295 22.66C86.1695 22.66 86.7295 22.765 87.2095 22.975C87.6995 23.185 88.1145 23.475 88.4545 23.845C88.7945 24.215 89.0545 24.64 89.2345 25.12C89.4145 25.59 89.5045 26.1 89.5045 26.65C89.5045 26.79 89.4945 26.935 89.4745 27.085C89.4645 27.235 89.4395 27.365 89.3995 27.475H83.0995V25.975H88.2895L87.3595 26.68C87.4495 26.22 87.4245 25.81 87.2845 25.45C87.1545 25.09 86.9345 24.805 86.6245 24.595C86.3245 24.385 85.9595 24.28 85.5295 24.28C85.1195 24.28 84.7545 24.385 84.4345 24.595C84.1145 24.795 83.8695 25.095 83.6995 25.495C83.5395 25.885 83.4795 26.36 83.5195 26.92C83.4795 27.42 83.5445 27.865 83.7145 28.255C83.8945 28.635 84.1545 28.93 84.4945 29.14C84.8445 29.35 85.2445 29.455 85.6945 29.455C86.1445 29.455 86.5245 29.36 86.8345 29.17C87.1545 28.98 87.4045 28.725 87.5845 28.405L89.1745 29.185C89.0145 29.575 88.7645 29.92 88.4245 30.22C88.0845 30.52 87.6795 30.755 87.2095 30.925C86.7495 31.095 86.2395 31.18 85.6795 31.18ZM93.0491 31L90.2441 22.84H92.3141L94.3691 29.035L93.6491 29.02L95.8391 22.84H97.5791L99.7541 29.02L99.0341 29.035L101.089 22.84H103.159L100.354 31H98.5991L96.3791 24.535H97.0391L94.7891 31H93.0491ZM109.047 31V21.625H106.152V19.825H113.952V21.625H111.102V31H109.047ZM116.614 31.18C116.044 31.18 115.549 31.085 115.129 30.895C114.709 30.705 114.384 30.435 114.154 30.085C113.924 29.725 113.809 29.31 113.809 28.84C113.809 28.39 113.909 27.99 114.109 27.64C114.309 27.28 114.619 26.98 115.039 26.74C115.459 26.5 115.989 26.33 116.629 26.23L119.299 25.795V27.295L117.004 27.685C116.614 27.755 116.324 27.88 116.134 28.06C115.944 28.24 115.849 28.475 115.849 28.765C115.849 29.045 115.954 29.27 116.164 29.44C116.384 29.6 116.654 29.68 116.974 29.68C117.384 29.68 117.744 29.595 118.054 29.425C118.374 29.245 118.619 29 118.789 28.69C118.969 28.38 119.059 28.04 119.059 27.67V25.57C119.059 25.22 118.919 24.93 118.639 24.7C118.369 24.46 118.009 24.34 117.559 24.34C117.139 24.34 116.764 24.455 116.434 24.685C116.114 24.905 115.879 25.2 115.729 25.57L114.124 24.79C114.284 24.36 114.534 23.99 114.874 23.68C115.224 23.36 115.634 23.11 116.104 22.93C116.574 22.75 117.084 22.66 117.634 22.66C118.304 22.66 118.894 22.785 119.404 23.035C119.914 23.275 120.309 23.615 120.589 24.055C120.879 24.485 121.024 24.99 121.024 25.57V31H119.164V29.605L119.584 29.575C119.374 29.925 119.124 30.22 118.834 30.46C118.544 30.69 118.214 30.87 117.844 31C117.474 31.12 117.064 31.18 116.614 31.18ZM125.945 31.18C125.075 31.18 124.315 30.975 123.665 30.565C123.025 30.145 122.585 29.58 122.345 28.87L123.815 28.165C124.025 28.625 124.315 28.985 124.685 29.245C125.065 29.505 125.485 29.635 125.945 29.635C126.305 29.635 126.59 29.555 126.8 29.395C127.01 29.235 127.115 29.025 127.115 28.765C127.115 28.605 127.07 28.475 126.98 28.375C126.9 28.265 126.785 28.175 126.635 28.105C126.495 28.025 126.34 27.96 126.17 27.91L124.835 27.535C124.145 27.335 123.62 27.03 123.26 26.62C122.91 26.21 122.735 25.725 122.735 25.165C122.735 24.665 122.86 24.23 123.11 23.86C123.37 23.48 123.725 23.185 124.175 22.975C124.635 22.765 125.16 22.66 125.75 22.66C126.52 22.66 127.2 22.845 127.79 23.215C128.38 23.585 128.8 24.105 129.05 24.775L127.55 25.48C127.41 25.11 127.175 24.815 126.845 24.595C126.515 24.375 126.145 24.265 125.735 24.265C125.405 24.265 125.145 24.34 124.955 24.49C124.765 24.64 124.67 24.835 124.67 25.075C124.67 25.225 124.71 25.355 124.79 25.465C124.87 25.575 124.98 25.665 125.12 25.735C125.27 25.805 125.44 25.87 125.63 25.93L126.935 26.32C127.605 26.52 128.12 26.82 128.48 27.22C128.85 27.62 129.035 28.11 129.035 28.69C129.035 29.18 128.905 29.615 128.645 29.995C128.385 30.365 128.025 30.655 127.565 30.865C127.105 31.075 126.565 31.18 125.945 31.18ZM130.545 31V19.645H132.51V27.085L131.76 26.86L135.6 22.84H138.045L135.03 26.125L138.105 31H135.855L133.185 26.77L134.355 26.53L131.895 29.17L132.51 27.97V31H130.545Z" fill="white"/>
</g>
<defs>
<clipPath id="clip0_0_2995">
<rect width="164" height="48" fill="white"/>
</clipPath>
</defs>
</svg>
